<?xml version="1.0" encoding="utf-8"?>
<!-- Generator: Adobe Illustrator 15.0.1, SVG Export Plug-In . SVG Version: 6.00 Build 0)  -->
<!DOCTYPE svg PUBLIC "-//W3C//DTD SVG 1.1//EN" "http://www.w3.org/Graphics/SVG/1.1/DTD/svg11.dtd">
<svg version="1.1" id="Layer_1" xmlns="http://www.w3.org/2000/svg" xmlns:xlink="http://www.w3.org/1999/xlink" x="0px" y="0px"
	 width="85px" height="85px" viewBox="0 0 85 85" enable-background="new 0 0 85 85" xml:space="preserve">
<pattern  width="72" height="72" patternUnits="userSpaceOnUse" id="Stipple_Fine" viewBox="16 -72.688 72 72" overflow="visible">
	<g>
		<polygon fill="none" points="16,-0.688 16,-72.688 88,-72.688 88,-0.688 		"/>
		<line fill="#FFFFFF" x1="0" y1="-6.688" x2="6" y2="-0.688"/>
		<line fill="#FFFFFF" x1="0" y1="-0.688" x2="6" y2="-6.688"/>
		
			<line fill="none" stroke="#231F20" stroke-width="0.75" stroke-linecap="round" x1="28.937" y1="-3.188" x2="28.937" y2="-3.188"/>
		
			<line fill="none" stroke="#231F20" stroke-width="0.75" stroke-linecap="round" x1="17.125" y1="-3.375" x2="17.125" y2="-3.375"/>
		<line fill="none" stroke="#231F20" stroke-width="0.75" stroke-linecap="round" x1="26.5" y1="-4.688" x2="26.5" y2="-4.688"/>
		
			<line fill="none" stroke="#231F20" stroke-width="0.75" stroke-linecap="round" x1="35.687" y1="-5.813" x2="35.687" y2="-5.813"/>
		<line fill="none" stroke="#231F20" stroke-width="0.75" stroke-linecap="round" x1="19.75" y1="-0.938" x2="19.75" y2="-0.938"/>
		
			<line fill="none" stroke="#231F20" stroke-width="0.75" stroke-linecap="round" x1="23.125" y1="-7.313" x2="23.125" y2="-7.313"/>
		
			<line fill="none" stroke="#231F20" stroke-width="0.75" stroke-linecap="round" x1="40.562" y1="-2.438" x2="40.562" y2="-2.438"/>
		<line fill="none" stroke="#231F20" stroke-width="0.75" stroke-linecap="round" x1="43" y1="-1.125" x2="43" y2="-1.125"/>
		
			<line fill="none" stroke="#231F20" stroke-width="0.75" stroke-linecap="round" x1="45.062" y1="-5.438" x2="45.062" y2="-5.438"/>
		
			<line fill="none" stroke="#231F20" stroke-width="0.75" stroke-linecap="round" x1="56.875" y1="-6.375" x2="56.875" y2="-6.375"/>
		
			<line fill="none" stroke="#231F20" stroke-width="0.75" stroke-linecap="round" x1="65.312" y1="-5.063" x2="65.312" y2="-5.063"/>
		
			<line fill="none" stroke="#231F20" stroke-width="0.75" stroke-linecap="round" x1="51.062" y1="-6.938" x2="51.062" y2="-6.938"/>
		
			<line fill="none" stroke="#231F20" stroke-width="0.75" stroke-linecap="round" x1="40.562" y1="-6.938" x2="40.562" y2="-6.938"/>
		
			<line fill="none" stroke="#231F20" stroke-width="0.75" stroke-linecap="round" x1="31.187" y1="-6.938" x2="31.187" y2="-6.938"/>
		
			<line fill="none" stroke="#231F20" stroke-width="0.75" stroke-linecap="round" x1="59.875" y1="-9.563" x2="59.875" y2="-9.563"/>
		
			<line fill="none" stroke="#231F20" stroke-width="0.75" stroke-linecap="round" x1="62.687" y1="-1.313" x2="62.687" y2="-1.313"/>
		
			<line fill="none" stroke="#231F20" stroke-width="0.75" stroke-linecap="round" x1="34.562" y1="-0.938" x2="34.562" y2="-0.938"/>
		<line fill="none" stroke="#231F20" stroke-width="0.75" stroke-linecap="round" x1="48.437" y1="-2.25" x2="48.437" y2="-2.25"/>
		<line fill="none" stroke="#231F20" stroke-width="0.75" stroke-linecap="round" x1="56.312" y1="-0.75" x2="56.312" y2="-0.75"/>
		
			<line fill="none" stroke="#231F20" stroke-width="0.75" stroke-linecap="round" x1="66.625" y1="-24.563" x2="66.625" y2="-24.563"/>
		
			<line fill="none" stroke="#231F20" stroke-width="0.75" stroke-linecap="round" x1="74.312" y1="-24.938" x2="74.312" y2="-24.938"/>
		
			<line fill="none" stroke="#231F20" stroke-width="0.75" stroke-linecap="round" x1="78.812" y1="-24.375" x2="78.812" y2="-24.375"/>
		
			<line fill="none" stroke="#231F20" stroke-width="0.75" stroke-linecap="round" x1="82.937" y1="-2.063" x2="82.937" y2="-2.063"/>
		
			<line fill="none" stroke="#231F20" stroke-width="0.75" stroke-linecap="round" x1="68.312" y1="-11.813" x2="68.312" y2="-11.813"/>
		<line fill="none" stroke="#231F20" stroke-width="0.75" stroke-linecap="round" x1="86.5" y1="-17.813" x2="86.5" y2="-17.813"/>
		
			<line fill="none" stroke="#231F20" stroke-width="0.75" stroke-linecap="round" x1="87.062" y1="-4.688" x2="87.062" y2="-4.688"/>
		
			<line fill="none" stroke="#231F20" stroke-width="0.75" stroke-linecap="round" x1="79.937" y1="-19.875" x2="79.937" y2="-19.875"/>
		
			<line fill="none" stroke="#231F20" stroke-width="0.75" stroke-linecap="round" x1="77.875" y1="-1.125" x2="77.875" y2="-1.125"/>
		
			<line fill="none" stroke="#231F20" stroke-width="0.75" stroke-linecap="round" x1="69.625" y1="-20.25" x2="69.625" y2="-20.25"/>
		<line fill="none" stroke="#231F20" stroke-width="0.75" stroke-linecap="round" x1="67.75" y1="-6" x2="67.75" y2="-6"/>
		
			<line fill="none" stroke="#231F20" stroke-width="0.75" stroke-linecap="round" x1="73.375" y1="-17.625" x2="73.375" y2="-17.625"/>
		
			<line fill="none" stroke="#231F20" stroke-width="0.75" stroke-linecap="round" x1="76.937" y1="-16.875" x2="76.937" y2="-16.875"/>
		
			<line fill="none" stroke="#231F20" stroke-width="0.75" stroke-linecap="round" x1="72.437" y1="-3.375" x2="72.437" y2="-3.375"/>
		
			<line fill="none" stroke="#231F20" stroke-width="0.75" stroke-linecap="round" x1="77.312" y1="-9.563" x2="77.312" y2="-9.563"/>
		
			<line fill="none" stroke="#231F20" stroke-width="0.75" stroke-linecap="round" x1="73.937" y1="-11.25" x2="73.937" y2="-11.25"/>
		
			<line fill="none" stroke="#231F20" stroke-width="0.75" stroke-linecap="round" x1="83.125" y1="-7.875" x2="83.125" y2="-7.875"/>
		
			<line fill="none" stroke="#231F20" stroke-width="0.75" stroke-linecap="round" x1="85.187" y1="-12.75" x2="85.187" y2="-12.75"/>
		
			<line fill="none" stroke="#231F20" stroke-width="0.75" stroke-linecap="round" x1="81.062" y1="-13.875" x2="81.062" y2="-13.875"/>
		
			<line fill="none" stroke="#231F20" stroke-width="0.75" stroke-linecap="round" x1="17.687" y1="-16.125" x2="17.687" y2="-16.125"/>
		
			<line fill="none" stroke="#231F20" stroke-width="0.75" stroke-linecap="round" x1="45.25" y1="-10.313" x2="45.25" y2="-10.313"/>
		
			<line fill="none" stroke="#231F20" stroke-width="0.75" stroke-linecap="round" x1="31.562" y1="-21.375" x2="31.562" y2="-21.375"/>
		
			<line fill="none" stroke="#231F20" stroke-width="0.75" stroke-linecap="round" x1="20.875" y1="-11.813" x2="20.875" y2="-11.813"/>
		
			<line fill="none" stroke="#231F20" stroke-width="0.75" stroke-linecap="round" x1="34.75" y1="-18.563" x2="34.75" y2="-18.563"/>
		
			<line fill="none" stroke="#231F20" stroke-width="0.75" stroke-linecap="round" x1="25.75" y1="-21.938" x2="25.75" y2="-21.938"/>
		
			<line fill="none" stroke="#231F20" stroke-width="0.75" stroke-linecap="round" x1="34.562" y1="-24.563" x2="34.562" y2="-24.563"/>
		
			<line fill="none" stroke="#231F20" stroke-width="0.75" stroke-linecap="round" x1="37.375" y1="-16.313" x2="37.375" y2="-16.313"/>
		
			<line fill="none" stroke="#231F20" stroke-width="0.75" stroke-linecap="round" x1="36.625" y1="-12.75" x2="36.625" y2="-12.75"/>
		
			<line fill="none" stroke="#231F20" stroke-width="0.75" stroke-linecap="round" x1="23.125" y1="-17.25" x2="23.125" y2="-17.25"/>
		
			<line fill="none" stroke="#231F20" stroke-width="0.75" stroke-linecap="round" x1="29.312" y1="-12.375" x2="29.312" y2="-12.375"/>
		<line fill="none" stroke="#231F20" stroke-width="0.75" stroke-linecap="round" x1="31" y1="-15.75" x2="31" y2="-15.75"/>
		
			<line fill="none" stroke="#231F20" stroke-width="0.75" stroke-linecap="round" x1="46.187" y1="-22.875" x2="46.187" y2="-22.875"/>
		<line fill="none" stroke="#231F20" stroke-width="0.75" stroke-linecap="round" x1="52" y1="-15.375" x2="52" y2="-15.375"/>
		
			<line fill="none" stroke="#231F20" stroke-width="0.75" stroke-linecap="round" x1="58.375" y1="-13.313" x2="58.375" y2="-13.313"/>
		
			<line fill="none" stroke="#231F20" stroke-width="0.75" stroke-linecap="round" x1="62.687" y1="-20.063" x2="62.687" y2="-20.063"/>
		
			<line fill="none" stroke="#231F20" stroke-width="0.75" stroke-linecap="round" x1="62.875" y1="-14.063" x2="62.875" y2="-14.063"/>
		
			<line fill="none" stroke="#231F20" stroke-width="0.75" stroke-linecap="round" x1="44.687" y1="-20.438" x2="44.687" y2="-20.438"/>
		
			<line fill="none" stroke="#231F20" stroke-width="0.75" stroke-linecap="round" x1="46.75" y1="-15.188" x2="46.75" y2="-15.188"/>
		
			<line fill="none" stroke="#231F20" stroke-width="0.75" stroke-linecap="round" x1="42.062" y1="-17.063" x2="42.062" y2="-17.063"/>
		
			<line fill="none" stroke="#231F20" stroke-width="0.75" stroke-linecap="round" x1="55.187" y1="-17.438" x2="55.187" y2="-17.438"/>
		
			<line fill="none" stroke="#231F20" stroke-width="0.75" stroke-linecap="round" x1="58.937" y1="-23.25" x2="58.937" y2="-23.25"/>
		
			<line fill="none" stroke="#231F20" stroke-width="0.75" stroke-linecap="round" x1="60.062" y1="-17.438" x2="60.062" y2="-17.438"/>
		
			<line fill="none" stroke="#231F20" stroke-width="0.75" stroke-linecap="round" x1="42.437" y1="-25.125" x2="42.437" y2="-25.125"/>
		
			<line fill="none" stroke="#231F20" stroke-width="0.75" stroke-linecap="round" x1="65.312" y1="-20.625" x2="65.312" y2="-20.625"/>
		
			<line fill="none" stroke="#231F20" stroke-width="0.75" stroke-linecap="round" x1="51.625" y1="-24.563" x2="51.625" y2="-24.563"/>
		<line fill="none" stroke="#231F20" stroke-width="0.75" stroke-linecap="round" x1="52" y1="-20.625" x2="52" y2="-20.625"/>
		<line fill="none" stroke="#231F20" stroke-width="0.75" stroke-linecap="round" x1="18.812" y1="-24" x2="18.812" y2="-24"/>
		
			<line fill="none" stroke="#231F20" stroke-width="0.75" stroke-linecap="round" x1="21.25" y1="-24.938" x2="21.25" y2="-24.938"/>
		
			<line fill="none" stroke="#231F20" stroke-width="0.75" stroke-linecap="round" x1="19.375" y1="-70.875" x2="19.375" y2="-70.875"/>
		
			<line fill="none" stroke="#231F20" stroke-width="0.75" stroke-linecap="round" x1="26.125" y1="-66.563" x2="26.125" y2="-66.563"/>
		
			<line fill="none" stroke="#231F20" stroke-width="0.75" stroke-linecap="round" x1="20.125" y1="-66.375" x2="20.125" y2="-66.375"/>
		<line fill="none" stroke="#231F20" stroke-width="0.75" stroke-linecap="round" x1="38.5" y1="-69" x2="38.5" y2="-69"/>
		
			<line fill="none" stroke="#231F20" stroke-width="0.75" stroke-linecap="round" x1="47.125" y1="-71.625" x2="47.125" y2="-71.625"/>
		
			<line fill="none" stroke="#231F20" stroke-width="0.75" stroke-linecap="round" x1="62.875" y1="-68.063" x2="62.875" y2="-68.063"/>
		<line fill="none" stroke="#231F20" stroke-width="0.75" stroke-linecap="round" x1="49.75" y1="-67.5" x2="49.75" y2="-67.5"/>
		
			<line fill="none" stroke="#231F20" stroke-width="0.75" stroke-linecap="round" x1="38.875" y1="-65.625" x2="38.875" y2="-65.625"/>
		
			<line fill="none" stroke="#231F20" stroke-width="0.75" stroke-linecap="round" x1="29.312" y1="-70.313" x2="29.312" y2="-70.313"/>
		<line fill="none" stroke="#231F20" stroke-width="0.75" stroke-linecap="round" x1="31.937" y1="-67.5" x2="31.937" y2="-67.5"/>
		
			<line fill="none" stroke="#231F20" stroke-width="0.75" stroke-linecap="round" x1="57.25" y1="-65.438" x2="57.25" y2="-65.438"/>
		<line fill="none" stroke="#231F20" stroke-width="0.75" stroke-linecap="round" x1="23.5" y1="-69.188" x2="23.5" y2="-69.188"/>
		
			<line fill="none" stroke="#231F20" stroke-width="0.75" stroke-linecap="round" x1="45.625" y1="-65.25" x2="45.625" y2="-65.25"/>
		
			<line fill="none" stroke="#231F20" stroke-width="0.75" stroke-linecap="round" x1="26.687" y1="-63.938" x2="26.687" y2="-63.938"/>
		<line fill="none" stroke="#231F20" stroke-width="0.75" stroke-linecap="round" x1="50.5" y1="-63.75" x2="50.5" y2="-63.75"/>
		<line fill="none" stroke="#231F20" stroke-width="0.75" stroke-linecap="round" x1="32.687" y1="-72" x2="32.687" y2="-72"/>
		
			<line fill="none" stroke="#231F20" stroke-width="0.75" stroke-linecap="round" x1="52.937" y1="-71.438" x2="52.937" y2="-71.438"/>
		
			<line fill="none" stroke="#231F20" stroke-width="0.75" stroke-linecap="round" x1="57.812" y1="-69.375" x2="57.812" y2="-69.375"/>
		<line fill="none" stroke="#231F20" stroke-width="0.75" stroke-linecap="round" x1="61" y1="-64.313" x2="61" y2="-64.313"/>
		
			<line fill="none" stroke="#231F20" stroke-width="0.75" stroke-linecap="round" x1="28.937" y1="-48.188" x2="28.937" y2="-48.188"/>
		
			<line fill="none" stroke="#231F20" stroke-width="0.75" stroke-linecap="round" x1="17.125" y1="-48.375" x2="17.125" y2="-48.375"/>
		
			<line fill="none" stroke="#231F20" stroke-width="0.75" stroke-linecap="round" x1="21.437" y1="-42.375" x2="21.437" y2="-42.375"/>
		<line fill="none" stroke="#231F20" stroke-width="0.75" stroke-linecap="round" x1="19.375" y1="-36" x2="19.375" y2="-36"/>
		
			<line fill="none" stroke="#231F20" stroke-width="0.75" stroke-linecap="round" x1="26.125" y1="-31.688" x2="26.125" y2="-31.688"/>
		<line fill="none" stroke="#231F20" stroke-width="0.75" stroke-linecap="round" x1="20.125" y1="-31.5" x2="20.125" y2="-31.5"/>
		<line fill="none" stroke="#231F20" stroke-width="0.75" stroke-linecap="round" x1="26.5" y1="-49.688" x2="26.5" y2="-49.688"/>
		
			<line fill="none" stroke="#231F20" stroke-width="0.75" stroke-linecap="round" x1="35.687" y1="-50.813" x2="35.687" y2="-50.813"/>
		
			<line fill="none" stroke="#231F20" stroke-width="0.75" stroke-linecap="round" x1="19.75" y1="-45.938" x2="19.75" y2="-45.938"/>
		
			<line fill="none" stroke="#231F20" stroke-width="0.75" stroke-linecap="round" x1="23.125" y1="-52.313" x2="23.125" y2="-52.313"/>
		
			<line fill="none" stroke="#231F20" stroke-width="0.75" stroke-linecap="round" x1="40.562" y1="-47.438" x2="40.562" y2="-47.438"/>
		<line fill="none" stroke="#231F20" stroke-width="0.75" stroke-linecap="round" x1="43" y1="-46.125" x2="43" y2="-46.125"/>
		<line fill="none" stroke="#231F20" stroke-width="0.75" stroke-linecap="round" x1="23.5" y1="-39.188" x2="23.5" y2="-39.188"/>
		<line fill="none" stroke="#231F20" stroke-width="0.75" stroke-linecap="round" x1="38.5" y1="-34.125" x2="38.5" y2="-34.125"/>
		
			<line fill="none" stroke="#231F20" stroke-width="0.75" stroke-linecap="round" x1="47.125" y1="-36.75" x2="47.125" y2="-36.75"/>
		
			<line fill="none" stroke="#231F20" stroke-width="0.75" stroke-linecap="round" x1="45.062" y1="-50.438" x2="45.062" y2="-50.438"/>
		
			<line fill="none" stroke="#231F20" stroke-width="0.75" stroke-linecap="round" x1="56.875" y1="-51.375" x2="56.875" y2="-51.375"/>
		
			<line fill="none" stroke="#231F20" stroke-width="0.75" stroke-linecap="round" x1="42.812" y1="-39.375" x2="42.812" y2="-39.375"/>
		
			<line fill="none" stroke="#231F20" stroke-width="0.75" stroke-linecap="round" x1="62.875" y1="-33.188" x2="62.875" y2="-33.188"/>
		
			<line fill="none" stroke="#231F20" stroke-width="0.75" stroke-linecap="round" x1="49.75" y1="-32.625" x2="49.75" y2="-32.625"/>
		
			<line fill="none" stroke="#231F20" stroke-width="0.75" stroke-linecap="round" x1="38.875" y1="-30.75" x2="38.875" y2="-30.75"/>
		
			<line fill="none" stroke="#231F20" stroke-width="0.75" stroke-linecap="round" x1="29.312" y1="-35.438" x2="29.312" y2="-35.438"/>
		
			<line fill="none" stroke="#231F20" stroke-width="0.75" stroke-linecap="round" x1="31.937" y1="-32.625" x2="31.937" y2="-32.625"/>
		
			<line fill="none" stroke="#231F20" stroke-width="0.75" stroke-linecap="round" x1="54.75" y1="-30.188" x2="54.75" y2="-30.188"/>
		
			<line fill="none" stroke="#231F20" stroke-width="0.75" stroke-linecap="round" x1="64.937" y1="-39.75" x2="64.937" y2="-39.75"/>
		
			<line fill="none" stroke="#231F20" stroke-width="0.75" stroke-linecap="round" x1="46.187" y1="-41.813" x2="46.187" y2="-41.813"/>
		
			<line fill="none" stroke="#231F20" stroke-width="0.75" stroke-linecap="round" x1="65.312" y1="-50.063" x2="65.312" y2="-50.063"/>
		
			<line fill="none" stroke="#231F20" stroke-width="0.75" stroke-linecap="round" x1="51.062" y1="-51.938" x2="51.062" y2="-51.938"/>
		<line fill="none" stroke="#231F20" stroke-width="0.75" stroke-linecap="round" x1="23.5" y1="-34.313" x2="23.5" y2="-34.313"/>
		
			<line fill="none" stroke="#231F20" stroke-width="0.75" stroke-linecap="round" x1="40.562" y1="-51.938" x2="40.562" y2="-51.938"/>
		
			<line fill="none" stroke="#231F20" stroke-width="0.75" stroke-linecap="round" x1="31.187" y1="-51.938" x2="31.187" y2="-51.938"/>
		
			<line fill="none" stroke="#231F20" stroke-width="0.75" stroke-linecap="round" x1="45.625" y1="-30.375" x2="45.625" y2="-30.375"/>
		
			<line fill="none" stroke="#231F20" stroke-width="0.75" stroke-linecap="round" x1="26.687" y1="-29.063" x2="26.687" y2="-29.063"/>
		
			<line fill="none" stroke="#231F20" stroke-width="0.75" stroke-linecap="round" x1="59.875" y1="-54.563" x2="59.875" y2="-54.563"/>
		<line fill="none" stroke="#231F20" stroke-width="0.75" stroke-linecap="round" x1="50.5" y1="-28.875" x2="50.5" y2="-28.875"/>
		
			<line fill="none" stroke="#231F20" stroke-width="0.75" stroke-linecap="round" x1="60.75" y1="-47.688" x2="60.75" y2="-47.688"/>
		
			<line fill="none" stroke="#231F20" stroke-width="0.75" stroke-linecap="round" x1="30.625" y1="-42.75" x2="30.625" y2="-42.75"/>
		
			<line fill="none" stroke="#231F20" stroke-width="0.75" stroke-linecap="round" x1="26.687" y1="-42.375" x2="26.687" y2="-42.375"/>
		
			<line fill="none" stroke="#231F20" stroke-width="0.75" stroke-linecap="round" x1="36.812" y1="-40.125" x2="36.812" y2="-40.125"/>
		<line fill="none" stroke="#231F20" stroke-width="0.75" stroke-linecap="round" x1="37.75" y1="-43.5" x2="37.75" y2="-43.5"/>
		
			<line fill="none" stroke="#231F20" stroke-width="0.75" stroke-linecap="round" x1="34.562" y1="-45.938" x2="34.562" y2="-45.938"/>
		
			<line fill="none" stroke="#231F20" stroke-width="0.75" stroke-linecap="round" x1="32.687" y1="-37.125" x2="32.687" y2="-37.125"/>
		
			<line fill="none" stroke="#231F20" stroke-width="0.75" stroke-linecap="round" x1="61.937" y1="-42.75" x2="61.937" y2="-42.75"/>
		
			<line fill="none" stroke="#231F20" stroke-width="0.75" stroke-linecap="round" x1="48.437" y1="-47.25" x2="48.437" y2="-47.25"/>
		
			<line fill="none" stroke="#231F20" stroke-width="0.75" stroke-linecap="round" x1="54.625" y1="-42.375" x2="54.625" y2="-42.375"/>
		
			<line fill="none" stroke="#231F20" stroke-width="0.75" stroke-linecap="round" x1="56.312" y1="-45.75" x2="56.312" y2="-45.75"/>
		
			<line fill="none" stroke="#231F20" stroke-width="0.75" stroke-linecap="round" x1="52.937" y1="-36.563" x2="52.937" y2="-36.563"/>
		<line fill="none" stroke="#231F20" stroke-width="0.75" stroke-linecap="round" x1="57.812" y1="-34.5" x2="57.812" y2="-34.5"/>
		
			<line fill="none" stroke="#231F20" stroke-width="0.75" stroke-linecap="round" x1="58.937" y1="-38.625" x2="58.937" y2="-38.625"/>
		<line fill="none" stroke="#231F20" stroke-width="0.75" stroke-linecap="round" x1="61" y1="-29.438" x2="61" y2="-29.438"/>
		
			<line fill="none" stroke="#231F20" stroke-width="0.75" stroke-linecap="round" x1="65.875" y1="-29.625" x2="65.875" y2="-29.625"/>
		
			<line fill="none" stroke="#231F20" stroke-width="0.75" stroke-linecap="round" x1="70.562" y1="-27.75" x2="70.562" y2="-27.75"/>
		<line fill="none" stroke="#231F20" stroke-width="0.75" stroke-linecap="round" x1="71.5" y1="-52.875" x2="71.5" y2="-52.875"/>
		
			<line fill="none" stroke="#231F20" stroke-width="0.75" stroke-linecap="round" x1="69.812" y1="-34.313" x2="69.812" y2="-34.313"/>
		
			<line fill="none" stroke="#231F20" stroke-width="0.75" stroke-linecap="round" x1="76.375" y1="-27.375" x2="76.375" y2="-27.375"/>
		
			<line fill="none" stroke="#231F20" stroke-width="0.75" stroke-linecap="round" x1="71.312" y1="-41.063" x2="71.312" y2="-41.063"/>
		
			<line fill="none" stroke="#231F20" stroke-width="0.75" stroke-linecap="round" x1="77.312" y1="-45.375" x2="77.312" y2="-45.375"/>
		<line fill="none" stroke="#231F20" stroke-width="0.75" stroke-linecap="round" x1="82" y1="-28.688" x2="82" y2="-28.688"/>
		
			<line fill="none" stroke="#231F20" stroke-width="0.75" stroke-linecap="round" x1="88.187" y1="-27.563" x2="88.187" y2="-27.563"/>
		
			<line fill="none" stroke="#231F20" stroke-width="0.75" stroke-linecap="round" x1="83.687" y1="-43.313" x2="83.687" y2="-43.313"/>
		<line fill="none" stroke="#231F20" stroke-width="0.75" stroke-linecap="round" x1="88" y1="-50.063" x2="88" y2="-50.063"/>
		
			<line fill="none" stroke="#231F20" stroke-width="0.75" stroke-linecap="round" x1="88.187" y1="-44.063" x2="88.187" y2="-44.063"/>
		
			<line fill="none" stroke="#231F20" stroke-width="0.75" stroke-linecap="round" x1="88.187" y1="-33.188" x2="88.187" y2="-33.188"/>
		<line fill="none" stroke="#231F20" stroke-width="0.75" stroke-linecap="round" x1="70" y1="-50.438" x2="70" y2="-50.438"/>
		
			<line fill="none" stroke="#231F20" stroke-width="0.75" stroke-linecap="round" x1="68.875" y1="-59.625" x2="68.875" y2="-59.625"/>
		
			<line fill="none" stroke="#231F20" stroke-width="0.75" stroke-linecap="round" x1="66.812" y1="-38.25" x2="66.812" y2="-38.25"/>
		
			<line fill="none" stroke="#231F20" stroke-width="0.75" stroke-linecap="round" x1="74.75" y1="-42.188" x2="74.75" y2="-42.188"/>
		
			<line fill="none" stroke="#231F20" stroke-width="0.75" stroke-linecap="round" x1="67.375" y1="-47.063" x2="67.375" y2="-47.063"/>
		<line fill="none" stroke="#231F20" stroke-width="0.75" stroke-linecap="round" x1="72.25" y1="-64.5" x2="72.25" y2="-64.5"/>
		
			<line fill="none" stroke="#231F20" stroke-width="0.75" stroke-linecap="round" x1="73.562" y1="-66.938" x2="73.562" y2="-66.938"/>
		<line fill="none" stroke="#231F20" stroke-width="0.75" stroke-linecap="round" x1="80.5" y1="-47.438" x2="80.5" y2="-47.438"/>
		
			<line fill="none" stroke="#231F20" stroke-width="0.75" stroke-linecap="round" x1="85.562" y1="-62.438" x2="85.562" y2="-62.438"/>
		
			<line fill="none" stroke="#231F20" stroke-width="0.75" stroke-linecap="round" x1="82.937" y1="-71.063" x2="82.937" y2="-71.063"/>
		<line fill="none" stroke="#231F20" stroke-width="0.75" stroke-linecap="round" x1="69.25" y1="-69" x2="69.25" y2="-69"/>
		
			<line fill="none" stroke="#231F20" stroke-width="0.75" stroke-linecap="round" x1="80.312" y1="-66.75" x2="80.312" y2="-66.75"/>
		<line fill="none" stroke="#231F20" stroke-width="0.75" stroke-linecap="round" x1="84.25" y1="-53.25" x2="84.25" y2="-53.25"/>
		
			<line fill="none" stroke="#231F20" stroke-width="0.75" stroke-linecap="round" x1="87.062" y1="-55.875" x2="87.062" y2="-55.875"/>
		
			<line fill="none" stroke="#231F20" stroke-width="0.75" stroke-linecap="round" x1="77.875" y1="-70.125" x2="77.875" y2="-70.125"/>
		
			<line fill="none" stroke="#231F20" stroke-width="0.75" stroke-linecap="round" x1="85.375" y1="-47.438" x2="85.375" y2="-47.438"/>
		<line fill="none" stroke="#231F20" stroke-width="0.75" stroke-linecap="round" x1="67.75" y1="-64.5" x2="67.75" y2="-64.5"/>
		
			<line fill="none" stroke="#231F20" stroke-width="0.75" stroke-linecap="round" x1="67.75" y1="-55.125" x2="67.75" y2="-55.125"/>
		
			<line fill="none" stroke="#231F20" stroke-width="0.75" stroke-linecap="round" x1="81.625" y1="-31.125" x2="81.625" y2="-31.125"/>
		<line fill="none" stroke="#231F20" stroke-width="0.75" stroke-linecap="round" x1="79.375" y1="-39" x2="79.375" y2="-39"/>
		<line fill="none" stroke="#231F20" stroke-width="0.75" stroke-linecap="round" x1="75.812" y1="-33" x2="75.812" y2="-33"/>
		
			<line fill="none" stroke="#231F20" stroke-width="0.75" stroke-linecap="round" x1="84.437" y1="-37.313" x2="84.437" y2="-37.313"/>
		
			<line fill="none" stroke="#231F20" stroke-width="0.75" stroke-linecap="round" x1="76.937" y1="-54.563" x2="76.937" y2="-54.563"/>
		
			<line fill="none" stroke="#231F20" stroke-width="0.75" stroke-linecap="round" x1="77.312" y1="-50.625" x2="77.312" y2="-50.625"/>
		
			<line fill="none" stroke="#231F20" stroke-width="0.75" stroke-linecap="round" x1="79.562" y1="-60.75" x2="79.562" y2="-60.75"/>
		
			<line fill="none" stroke="#231F20" stroke-width="0.75" stroke-linecap="round" x1="76.187" y1="-61.688" x2="76.187" y2="-61.688"/>
		<line fill="none" stroke="#231F20" stroke-width="0.75" stroke-linecap="round" x1="73.75" y1="-58.5" x2="73.75" y2="-58.5"/>
		
			<line fill="none" stroke="#231F20" stroke-width="0.75" stroke-linecap="round" x1="82.562" y1="-56.625" x2="82.562" y2="-56.625"/>
		
			<line fill="none" stroke="#231F20" stroke-width="0.75" stroke-linecap="round" x1="72.437" y1="-72.375" x2="72.437" y2="-72.375"/>
		
			<line fill="none" stroke="#231F20" stroke-width="0.75" stroke-linecap="round" x1="61.75" y1="-25.875" x2="61.75" y2="-25.875"/>
		
			<line fill="none" stroke="#231F20" stroke-width="0.75" stroke-linecap="round" x1="57.25" y1="-26.625" x2="57.25" y2="-26.625"/>
		<line fill="none" stroke="#231F20" stroke-width="0.75" stroke-linecap="round" x1="25.75" y1="-60.75" x2="25.75" y2="-60.75"/>
		
			<line fill="none" stroke="#231F20" stroke-width="0.75" stroke-linecap="round" x1="34.187" y1="-59.438" x2="34.187" y2="-59.438"/>
		
			<line fill="none" stroke="#231F20" stroke-width="0.75" stroke-linecap="round" x1="19.937" y1="-61.313" x2="19.937" y2="-61.313"/>
		
			<line fill="none" stroke="#231F20" stroke-width="0.75" stroke-linecap="round" x1="31.562" y1="-55.688" x2="31.562" y2="-55.688"/>
		
			<line fill="none" stroke="#231F20" stroke-width="0.75" stroke-linecap="round" x1="17.312" y1="-56.625" x2="17.312" y2="-56.625"/>
		
			<line fill="none" stroke="#231F20" stroke-width="0.75" stroke-linecap="round" x1="25.187" y1="-55.125" x2="25.187" y2="-55.125"/>
		
			<line fill="none" stroke="#231F20" stroke-width="0.75" stroke-linecap="round" x1="40.375" y1="-62.25" x2="40.375" y2="-62.25"/>
		
			<line fill="none" stroke="#231F20" stroke-width="0.75" stroke-linecap="round" x1="46.187" y1="-54.75" x2="46.187" y2="-54.75"/>
		
			<line fill="none" stroke="#231F20" stroke-width="0.75" stroke-linecap="round" x1="56.875" y1="-59.438" x2="56.875" y2="-59.438"/>
		
			<line fill="none" stroke="#231F20" stroke-width="0.75" stroke-linecap="round" x1="40.25" y1="-58.188" x2="40.25" y2="-58.188"/>
		
			<line fill="none" stroke="#231F20" stroke-width="0.75" stroke-linecap="round" x1="36.25" y1="-56.438" x2="36.25" y2="-56.438"/>
		
			<line fill="none" stroke="#231F20" stroke-width="0.75" stroke-linecap="round" x1="49.375" y1="-56.813" x2="49.375" y2="-56.813"/>
		
			<line fill="none" stroke="#231F20" stroke-width="0.75" stroke-linecap="round" x1="53.125" y1="-62.625" x2="53.125" y2="-62.625"/>
		
			<line fill="none" stroke="#231F20" stroke-width="0.75" stroke-linecap="round" x1="54.25" y1="-56.813" x2="54.25" y2="-56.813"/>
		<line fill="none" stroke="#231F20" stroke-width="0.75" stroke-linecap="round" x1="59.5" y1="-60" x2="59.5" y2="-60"/>
		<line fill="none" stroke="#231F20" stroke-width="0.75" stroke-linecap="round" x1="46.187" y1="-60" x2="46.187" y2="-60"/>
		<line fill="none" stroke="#231F20" stroke-width="0.75" stroke-linecap="round" x1="30.812" y1="-28.5" x2="30.812" y2="-28.5"/>
		
			<line fill="none" stroke="#231F20" stroke-width="0.75" stroke-linecap="round" x1="19.75" y1="-72.938" x2="19.75" y2="-72.938"/>
		<line fill="none" stroke="#231F20" stroke-width="0.75" stroke-linecap="round" x1="43" y1="-73.125" x2="43" y2="-73.125"/>
		
			<line fill="none" stroke="#231F20" stroke-width="0.75" stroke-linecap="round" x1="34.562" y1="-72.938" x2="34.562" y2="-72.938"/>
		
			<line fill="none" stroke="#231F20" stroke-width="0.75" stroke-linecap="round" x1="56.312" y1="-72.75" x2="56.312" y2="-72.75"/>
		
			<line fill="none" stroke="#231F20" stroke-width="0.75" stroke-linecap="round" x1="77.875" y1="-73.125" x2="77.875" y2="-73.125"/>
		
			<line fill="none" stroke="#231F20" stroke-width="0.75" stroke-linecap="round" x1="72.437" y1="-0.375" x2="72.437" y2="-0.375"/>
		
			<line fill="none" stroke="#231F20" stroke-width="0.75" stroke-linecap="round" x1="16.187" y1="-27.563" x2="16.187" y2="-27.563"/>
		<line fill="none" stroke="#231F20" stroke-width="0.75" stroke-linecap="round" x1="16" y1="-50.063" x2="16" y2="-50.063"/>
		
			<line fill="none" stroke="#231F20" stroke-width="0.75" stroke-linecap="round" x1="16.187" y1="-44.063" x2="16.187" y2="-44.063"/>
		
			<line fill="none" stroke="#231F20" stroke-width="0.75" stroke-linecap="round" x1="16.187" y1="-33.188" x2="16.187" y2="-33.188"/>
		<path fill="none" stroke="#231F20" stroke-width="0.75" stroke-linecap="round" d="M6-62.313c0.208,0,0.375-0.167,0.375-0.375
			c0-0.206-0.167-0.375-0.375-0.375c-0.207,0-0.375,0.169-0.375,0.375C5.625-62.48,5.793-62.313,6-62.313z"/>
	</g>
</pattern>
<pattern  id="SVGID_1_" xlink:href="#Stipple_Fine" patternTransform="matrix(1 0 0 1 -138.0176 46.0088)">
</pattern>
<rect opacity="0.2" fill="url(#SVGID_1_)" width="85" height="85"/>
</svg>
